<?xml version="1.0" encoding="UTF-8"?>
<svg version="1.1" xmlns="http://www.w3.org/2000/svg" width="750" height="680">
<path d="M0 0 C247.5 0 495 0 750 0 C750 224.4 750 448.8 750 680 C502.5 680 255 680 0 680 C0 455.6 0 231.2 0 0 Z " fill="#F7F1EB" transform="translate(0,0)"/>
<path d="M0 0 C247.5 0 495 0 750 0 C750 224.4 750 448.8 750 680 C579.72 680 409.44 680 234 680 C236.24716553 668.76417234 236.24716553 668.76417234 237.62890625 664.2421875 C237.93747559 663.21931641 238.24604492 662.19644531 238.56396484 661.14257812 C238.89348145 660.06427734 239.22299805 658.98597656 239.5625 657.875 C241.9363649 650.01164183 244.26146346 642.14136187 246.45703125 634.2265625 C246.65956009 633.49774872 246.86208893 632.76893494 247.070755 632.01803589 C247.87118694 629.13378413 248.67035813 626.24925211 249.45901489 623.36175537 C250.00726886 621.35449188 250.56178087 619.34904396 251.1171875 617.34375 C251.43284668 616.19068359 251.74850586 615.03761719 252.07373047 613.84960938 C253 611 253 611 255 608 C257.81269187 607.7050186 260.40748343 607.60420242 263.22241211 607.63110352 C264.07310272 607.62733704 264.92379333 607.62357056 265.80026245 607.61968994 C267.65272354 607.6132422 269.50521768 607.61360176 271.35767937 607.61987495 C274.29731705 607.62896803 277.23631434 607.61877833 280.17591858 607.60325623 C288.53564392 607.56312891 296.89532136 607.56194187 305.25512695 607.56420898 C310.36690569 607.56426034 315.47834361 607.54495676 320.59002876 607.51487541 C323.47210966 607.50411252 326.35352157 607.51614972 329.23558044 607.52870178 C342.13820452 607.50342422 353.225612 606.29466344 363 597 C374.71050602 584.77380197 376.1810407 572.14969445 376 555.9375 C375.97436464 553.63416302 375.95337656 551.33076867 375.9375 549.02734375 C375.92009766 547.50741821 375.92009766 547.50741821 375.90234375 545.95678711 C376.00359786 542.89106592 376.47057567 540.01770888 377 537 C377.83084549 536.99910437 377.83084549 536.99910437 378.67847574 536.99819064 C411.57209086 536.962227 444.46559774 536.90548153 477.3591257 536.82207905 C481.3165652 536.81206266 485.27400511 536.80221835 489.23144531 536.79248047 C490.01923664 536.7905391 490.80702797 536.78859772 491.61869176 536.78659752 C504.34235126 536.7556518 517.06599277 536.73861768 529.78968279 536.72680578 C542.86406422 536.71435559 555.93835183 536.68676749 569.01267397 536.64538693 C577.06775324 536.62036169 585.12267674 536.60687464 593.17779543 536.60857043 C599.37452302 536.60860395 605.57102167 536.58748511 611.76767921 536.55883217 C614.29504487 536.55036961 616.82244374 536.5485582 619.34981728 536.55419731 C643.23250805 536.60035367 664.19607212 534.28321644 683 518 C698.57309542 501.53624228 705.50245584 480.41774449 705.38095093 458.04510498 C705.3844167 456.68736117 705.38918738 455.32962018 705.39513266 453.97188497 C705.40754568 450.27883753 705.40151717 446.58602551 705.39217401 442.89297771 C705.3853439 438.8957079 705.39588406 434.89847659 705.40411377 430.9012146 C705.41740985 423.08667421 705.41459227 415.27222056 705.40587585 407.45767686 C705.39908534 401.1055588 705.39818847 394.75346495 705.4014473 388.4013443 C705.401907 387.49538569 705.40236669 386.58942708 705.40284032 385.65601517 C705.40379955 383.81531069 705.40477219 381.97460621 705.4057581 380.13390175 C705.41429939 362.90054739 705.40449666 345.66724103 705.388357 328.43389454 C705.37494587 313.65642655 705.3772909 298.87902923 705.39111328 284.1015625 C705.40717571 266.92132697 705.41348509 249.74113338 705.40427649 232.56089139 C705.40332088 230.72839181 705.40237777 228.89589223 705.4014473 227.06339264 C705.40075306 225.71110226 705.40075306 225.71110226 705.40004479 224.33149289 C705.39745757 217.98714659 705.40181992 211.64282697 705.40888596 205.2984848 C705.41730812 197.56700571 705.41500537 189.83561797 705.39904372 182.10414931 C705.39117205 178.16172412 705.38805065 174.21945112 705.39799118 170.27702713 C705.40696099 166.66494303 705.40196798 163.05315156 705.38605852 159.44109383 C705.38114491 157.52269757 705.3908865 155.60428084 705.40123022 153.68590617 C705.35494098 146.86695467 704.61615213 141.30391183 702 135 C701.70738281 134.11570313 701.41476562 133.23140625 701.11328125 132.3203125 C695.6241404 117.27203367 684.83026585 107.51482497 670.8203125 100.54296875 C669.55483438 100.00936191 668.28056357 99.49631449 667 99 C666.29029053 98.72260986 665.58058105 98.44521973 664.84936523 98.15942383 C655.15273016 94.95787646 644.9099485 95.43313131 634.8125 95.3125 C632.88734733 95.27927138 630.96221608 95.24477675 629.03710938 95.20898438 C624.3581922 95.12471825 619.67931816 95.05761218 615 95 C614.99589111 93.96182129 614.99178223 92.92364258 614.98754883 91.85400391 C614.96558109 87.9583341 614.91111324 84.06364926 614.84741211 80.16845703 C614.82438445 78.49081955 614.80987256 76.81304063 614.80444336 75.13525391 C614.78154753 59.96110059 614.78154753 59.96110059 607.26049805 47.11425781 C601.68121478 41.82064317 596.27713075 39.83810782 588.6875 39.5 C581.09608295 39.70917797 575.46256551 41.74982234 569.8984375 46.97265625 C556.86962149 61.31507717 562.65787689 70.00067828 562 95 C530.65 95 499.3 95 467 95 C466.67 83.78 466.34 72.56 466 61 C462.19514824 52.43908354 459.24606201 45.83162375 450.75 41.5 C443.21195811 38.6155452 435.4391062 39.21863004 427.99609375 42.09765625 C420.57016743 45.45458185 416.89671751 50.19996197 413.95849609 57.63574219 C412.86622991 61.46952414 412.65000985 65.07000058 412.5859375 69.0234375 C412.56657135 69.76961334 412.5472052 70.51578918 412.5272522 71.28457642 C412.46787935 73.64793777 412.4212422 76.01134897 412.375 78.375 C412.33678116 79.98569732 412.2977272 81.59637506 412.2578125 83.20703125 C412.16221324 87.13786016 412.078028 91.06878463 412 95 C410.18580566 95.02187378 410.18580566 95.02187378 408.33496094 95.04418945 C403.79463953 95.10270345 399.25478692 95.1799273 394.71484375 95.26245117 C392.75984374 95.29545307 390.8047541 95.3235597 388.84960938 95.34643555 C368.85721494 95.58663047 352.34300142 98.11008955 337.21875 112.546875 C324.15930944 126.98583393 321.74650831 142.88066266 321.375 161.5625 C321.33674791 163.15952483 321.29769218 164.75653061 321.2578125 166.35351562 C321.16260319 170.23551951 321.07829048 174.11761956 321 178 C320.67 178 320.34 178 320 178 C320.04825928 176.95658447 320.09651855 175.91316895 320.14624023 174.83813477 C320.30668261 170.92973108 320.36614418 167.02492189 320.39672852 163.11352539 C320.42366238 161.42830385 320.47721861 159.7432738 320.55883789 158.05981445 C321.23892753 148.66522929 321.23892753 148.66522929 317.62298584 140.37759399 C313.54720075 137.00208519 308.8776942 134.95257282 304 133 C303.03312256 132.57291748 302.06624512 132.14583496 301.07006836 131.70581055 C298.65413483 130.70460655 296.23961798 129.86008457 293.75 129.0625 C292.9559375 128.78599609 292.161875 128.50949219 291.34375 128.22460938 C281.56908594 124.93748445 271.97918711 123.6264062 261.6875 123.6875 C260.68203125 123.69313965 259.6765625 123.6987793 258.640625 123.70458984 C234.53762981 124.09622474 211.77140467 134.75769742 195.0078125 152.03125 C191.31913285 155.94538581 187.70023926 159.81164174 184.80859375 164.36328125 C183.91333984 165.66845703 183.91333984 165.66845703 183 167 C182.34 167 181.68 167 181 167 C180.74605469 167.72058594 180.49210938 168.44117188 180.23046875 169.18359375 C178.91170618 172.20209475 177.31611694 174.45268069 175.3125 177.0625 C169.70891442 184.60186969 165.17584316 192.59964757 161 201 C159.83870071 201.00586624 158.67740143 201.01173248 157.48091125 201.01777649 C146.49186748 201.07519792 135.50301792 201.14805979 124.51417255 201.23571491 C118.86582705 201.2802828 113.21755143 201.3195684 107.5690918 201.34643555 C102.10947954 201.37260456 96.65013818 201.41310172 91.19069481 201.46318626 C89.11653217 201.4797635 87.04232278 201.49133431 84.96810341 201.49761391 C67.54618584 201.55565279 51.21721374 202.07650212 38 215 C28.82526635 226.19788004 25.90622432 239.22183463 25.79467773 253.34375 C25.77982834 254.53056114 25.77982834 254.53056114 25.76467896 255.74134827 C25.73337297 258.32753624 25.70843029 260.91374251 25.68359375 263.5 C25.66299745 265.30461067 25.64200032 267.1092168 25.62062073 268.91381836 C25.56567622 273.64178779 25.51614623 278.36979874 25.46777344 283.09783936 C25.41735552 287.93114883 25.36177583 292.7643987 25.30664062 297.59765625 C25.19939739 307.06505314 25.09787863 316.53250199 25 326 C24.0751606 325.38212616 24.0751606 325.38212616 23.13163757 324.75177002 C22.32209122 324.21139099 21.51254486 323.67101196 20.6784668 323.11425781 C19.8762822 322.57859192 19.0740976 322.04292603 18.24760437 321.49102783 C15.79573033 319.86449049 13.3247381 318.28174987 10.8125 316.75 C10.03519531 316.27046875 9.25789062 315.7909375 8.45703125 315.296875 C5.5070796 313.65438968 5.5070796 313.65438968 0 312 C0 209.04 0 106.08 0 0 Z " fill="#FBF8F7" transform="translate(0,0)"/>
<path d="M0 0 C5.94448682 5.31768719 8.10924985 9.29133293 11 17 C11 28.22 11 39.44 11 51 C42.35 51 73.7 51 106 51 C106 38.46 106 25.92 106 13 C111.22889202 4.63377277 116.15571119 -2.25650968 126 -5 C134.72049685 -6.01853572 141.80010277 -5.23858955 149 0 C154.06617422 4.57775289 158.35566142 10.05376373 159.2624054 17.01434326 C159.34442168 19.20193514 159.33807362 21.36995867 159.29296875 23.55859375 C159.28872391 24.34774673 159.28447906 25.13689972 159.28010559 25.94996643 C159.26344452 28.44617261 159.22581779 30.94154192 159.1875 33.4375 C159.17243683 35.13996222 159.15875129 36.84243721 159.14648438 38.54492188 C159.1135825 42.6969322 159.06188951 46.8483247 159 51 C160.15822266 50.97381592 161.31644531 50.94763184 162.50976562 50.9206543 C166.88570144 50.82884444 171.26155597 50.7722852 175.63818359 50.7253418 C177.51756188 50.70049078 179.39684662 50.66659724 181.27587891 50.62280273 C200.64018061 50.18340988 218.2038442 53.36787401 232.8125 67.3125 C239.91486127 74.94239173 244.44690178 81.88192925 247.17578125 92.01953125 C247.90401979 94.93865424 247.90401979 94.93865424 249.03543437 97.33046407 C250.10699529 100.29612063 250.25277131 102.54594262 250.25726891 105.69304371 C250.2637178 106.83568552 250.27016669 107.97832733 250.276811 109.15559465 C250.2737138 110.40634757 250.2706166 111.65710048 250.26742554 112.945755 C250.27116271 114.29160431 250.27576451 115.63745145 250.28115618 116.98329514 C250.29339457 120.68084969 250.2931247 124.37831381 250.29076743 128.07588398 C250.29035944 132.06456531 250.3013971 136.05321758 250.31088257 140.04188538 C250.32750113 147.85851133 250.33299261 155.67510712 250.33410732 163.49174926 C250.33505796 169.85019324 250.33916903 176.20862727 250.34550858 182.5670681 C250.36312791 200.60719112 250.37234705 218.64729033 250.37084763 236.68742201 C250.37072776 238.14647795 250.37072776 238.14647795 250.37060547 239.63500977 C250.37052371 240.60890694 250.37044195 241.58280411 250.37035771 242.58621331 C250.36954593 258.34698559 250.38865445 274.10766204 250.4168822 289.86840663 C250.4456588 306.06398672 250.45941968 322.25952017 250.45769465 338.45512646 C250.45703211 347.54241967 250.46246384 356.62961259 250.48405075 365.71688271 C250.50232608 373.45971142 250.50655849 381.20239445 250.4930319 388.94523547 C250.48653244 392.89054849 250.4862742 396.83558259 250.5037384 400.78086853 C250.62992841 431.19702734 250.62992841 431.19702734 246 444 C245.6012586 445.11418965 245.2025172 446.22837931 244.79169273 447.37633228 C238.2871702 464.6725601 226.40634967 478.49112009 209.765625 486.5703125 C193.28502636 493.2831417 177.60166772 493.42034211 160.08447266 493.34057617 C157.47160349 493.33972888 154.85873362 493.34020704 152.24586487 493.34190369 C146.64481901 493.34346808 141.04387891 493.33414685 135.44285965 493.31719017 C127.34498896 493.29269056 119.24716882 493.28498376 111.1492651 493.2812262 C98.00735877 493.27467879 84.86550866 493.25476436 71.72363281 493.22631836 C58.96614867 493.19873329 46.20867986 493.17752155 33.45117188 493.16479492 C32.66329618 493.16400675 31.87542048 493.16321858 31.06366976 493.16240653 C27.11067985 493.15849109 23.15768984 493.15470004 19.20469975 493.15097082 C-13.53024108 493.11992826 -46.26511298 493.06713943 -79 493 C-78.99907821 491.70113326 -78.99815641 490.40226652 -78.99720669 489.06404018 C-78.97542275 458.04480798 -78.95899706 427.02557789 -78.94893467 396.00633984 C-78.94768436 392.16609178 -78.94639 388.32584374 -78.94506836 384.4855957 C-78.94480605 383.72125658 -78.94454374 382.95691746 -78.94427348 382.16941655 C-78.93995384 369.88672795 -78.93208728 357.60404415 -78.9228472 345.32135838 C-78.91340651 332.66390145 -78.90792268 320.00644699 -78.90591151 307.34898669 C-78.9046773 300.26239198 -78.90173542 293.17580734 -78.89426994 286.08921623 C-78.87789709 269.80467316 -78.89247344 253.52066238 -78.98297644 237.23631048 C-78.99943741 234.10695295 -79.01108289 230.97760445 -79.02235794 227.84822464 C-79.04238313 223.25323527 -79.08931142 218.65933646 -79.16021073 214.06485665 C-79.18189203 212.46184072 -79.19588665 210.85869558 -79.20085132 209.25554073 C-79.25721481 195.12111796 -82.11859555 181.72564095 -92 171 C-101.35415919 162.94890776 -111.11245638 158.90204121 -123.39680481 158.84178162 C-124.4996468 158.83437465 -124.4996468 158.83437465 -125.62476844 158.82681805 C-128.0829326 158.811487 -130.54107074 158.80309437 -132.99926758 158.79467773 C-134.76353178 158.78509576 -136.52779369 158.77508548 -138.29205322 158.76467896 C-143.07877996 158.7376585 -147.86551653 158.71663345 -152.65227723 158.69667697 C-157.65579152 158.67479979 -162.65927559 158.64741957 -167.6627655 158.62062073 C-177.13635371 158.57071728 -186.6099587 158.52576973 -196.08357972 158.48259836 C-206.8694838 158.43320594 -217.65535757 158.37829524 -228.44123232 158.32291877 C-250.62745997 158.20913476 -272.81371657 158.10228791 -295 158 C-292.85677391 150.30092671 -292.85677391 150.30092671 -290.8984375 146.984375 C-290.29225586 145.95074829 -290.29225586 145.95074829 -289.67382812 144.89624023 C-289.24521484 144.18798096 -288.81660156 143.47972168 -288.375 142.75 C-287.93349609 142.01144775 -287.49199219 141.27289551 -287.03710938 140.51196289 C-279.58855188 128.20710666 -279.58855188 128.20710666 -275 123 C-274.34 123 -273.68 123 -273 123 C-272.75636719 122.44957031 -272.51273438 121.89914063 -272.26171875 121.33203125 C-269.58861361 116.39133846 -265.63711841 112.25141432 -262 108 C-261.47664063 107.37738281 -260.95328125 106.75476563 -260.4140625 106.11328125 C-246.70938762 91.13965499 -223.73785457 79.90053991 -203.5090332 78.87353516 C-191.72921364 78.54295482 -180.34683834 78.45726492 -169 82 C-168.27361328 82.22574707 -167.54722656 82.45149414 -166.79882812 82.68408203 C-155.55612008 86.2661363 -145.39130116 90.77252528 -136 98 C-135.67 98.66 -135.34 99.32 -135 100 C-134.79697266 98.92685547 -134.79697266 98.92685547 -134.58984375 97.83203125 C-131.21654656 82.21790714 -122.89305534 68.92622946 -109.4375 60.0625 C-98.48883412 53.62573159 -88.65834171 50.65409703 -75.93359375 50.8046875 C-75.01409439 50.8075174 -74.09459503 50.81034729 -73.14723206 50.81326294 C-70.24384907 50.82435416 -67.34078791 50.84943737 -64.4375 50.875 C-62.45508262 50.88504412 -60.47266034 50.89416745 -58.49023438 50.90234375 C-53.66003445 50.92425714 -48.83007157 50.95870919 -44 51 C-44.02094727 50.01717041 -44.04189453 49.03434082 -44.06347656 48.02172852 C-44.13647313 44.33730938 -44.18201358 40.65295269 -44.21972656 36.96801758 C-44.23970745 35.38034274 -44.26690203 33.79274021 -44.30175781 32.20532227 C-44.65789224 15.55603768 -44.65789224 15.55603768 -40 8 C-39.46375 6.948125 -38.9275 5.89625 -38.375 4.8125 C-28.69262678 -6.65346829 -12.12045322 -8.62879948 0 0 Z " fill="#E4E7F2" transform="translate(456,44)"/>
<path d="M0 0 C0 164.34 0 328.68 0 498 C-170.28 498 -340.56 498 -516 498 C-513.75283447 486.76417234 -513.75283447 486.76417234 -512.37109375 482.2421875 C-512.06252441 481.21931641 -511.75395508 480.19644531 -511.43603516 479.14257812 C-510.94176025 477.52512695 -510.94176025 477.52512695 -510.4375 475.875 C-508.0636351 468.01164183 -505.73853654 460.14136187 -503.54296875 452.2265625 C-503.34043991 451.49774872 -503.13791107 450.76893494 -502.929245 450.01803589 C-502.12881306 447.13378413 -501.32964187 444.24925211 -500.54098511 441.36175537 C-499.99273114 439.35449188 -499.43821913 437.34904396 -498.8828125 435.34375 C-498.40932373 433.61415039 -498.40932373 433.61415039 -497.92626953 431.84960938 C-497 429 -497 429 -495 426 C-492.18730813 425.7050186 -489.59251657 425.60420242 -486.77758789 425.63110352 C-485.92689728 425.62733704 -485.07620667 425.62357056 -484.19973755 425.61968994 C-482.34727646 425.6132422 -480.49478232 425.61360176 -478.64232063 425.61987495 C-475.70268295 425.62896803 -472.76368566 425.61877833 -469.82408142 425.60325623 C-461.46435608 425.56312891 -453.10467864 425.56194187 -444.74487305 425.56420898 C-439.63309431 425.56426034 -434.52165639 425.54495676 -429.40997124 425.51487541 C-426.52789034 425.50411252 -423.64647843 425.51614972 -420.76441956 425.52870178 C-407.86179548 425.50342422 -396.774388 424.29466344 -387 415 C-375.28949398 402.77380197 -373.8189593 390.14969445 -374 373.9375 C-374.02563536 371.63416302 -374.04662344 369.33076867 -374.0625 367.02734375 C-374.07410156 366.01406006 -374.08570313 365.00077637 -374.09765625 363.95678711 C-373.99640214 360.89106592 -373.52942433 358.01770888 -373 355 C-372.44610301 354.99940291 -371.89220601 354.99880582 -371.32152426 354.99819064 C-338.42790914 354.962227 -305.53440226 354.90548153 -272.6408743 354.82207905 C-268.6834348 354.81206266 -264.72599489 354.80221835 -260.76855469 354.79248047 C-259.98076336 354.7905391 -259.19297203 354.78859772 -258.38130824 354.78659752 C-245.65764874 354.7556518 -232.93400723 354.73861768 -220.21031721 354.72680578 C-207.13593578 354.71435559 -194.06164817 354.68676749 -180.98732603 354.64538693 C-172.93224676 354.62036169 -164.87732326 354.60687464 -156.82220457 354.60857043 C-150.62547698 354.60860395 -144.42897833 354.58748511 -138.23232079 354.55883217 C-135.70495513 354.55036961 -133.17755626 354.5485582 -130.65018272 354.55419731 C-106.76749195 354.60035367 -85.80392788 352.28321644 -67 336 C-50.84923499 318.9255344 -44.46767282 297.4464461 -44.67529297 274.35375977 C-44.67773978 272.82092121 -44.67882903 271.28807999 -44.6786871 269.75523949 C-44.68197118 265.60366685 -44.70364676 261.45237269 -44.72853494 257.30088115 C-44.7517301 252.86748698 -44.75728908 248.43406946 -44.76457214 244.00062561 C-44.77896624 236.43854405 -44.80311235 228.87654827 -44.83328247 221.31451416 C-44.87932845 209.55717676 -44.89465542 197.79989665 -44.90405273 186.04248047 C-44.90750135 182.12524407 -44.91107083 178.20800779 -44.91462708 174.29077148 C-44.91591095 172.84088904 -44.91591095 172.84088904 -44.91722077 171.36171603 C-44.92690121 160.7331619 -44.94214292 150.10461839 -44.95947266 139.47607422 C-44.96096097 138.54899013 -44.96244929 137.62190604 -44.9639827 136.6667285 C-44.98512588 123.74865476 -45.02159337 110.83069755 -45.0674572 97.912691 C-45.10399873 87.39921563 -45.10956657 76.88607355 -45.07836914 66.37256718 C-45.06044725 59.95241918 -45.08008162 53.53397343 -45.12976742 47.1140089 C-45.15040176 43.24682043 -45.13411463 39.38050816 -45.10595131 35.51339531 C-45.10052456 33.77198572 -45.11020036 32.03044713 -45.13680077 30.28923225 C-45.32044082 17.56624828 -45.32044082 17.56624828 -42.05490112 13.69281006 C-39.73824145 12.09443414 -37.62498745 10.99752837 -35 10 C-34.32530167 9.71355621 -33.65060333 9.42711243 -32.95545959 9.13198853 C-31.75146901 8.64170564 -30.5291632 8.19529884 -29.296875 7.78125 C-26.32217448 6.7694471 -23.42090567 5.59509395 -20.5 4.4375 C-13.39623127 1.7109668 -7.70978154 0 0 0 Z " fill="#FBF9F8" transform="translate(750,182)"/>
<path d="M0 0 C5.94448682 5.31768719 8.10924985 9.29133293 11 17 C11 28.22 11 39.44 11 51 C42.35 51 73.7 51 106 51 C106 38.46 106 25.92 106 13 C111.22889202 4.63377277 116.15571119 -2.25650968 126 -5 C134.72049685 -6.01853572 141.80010277 -5.23858955 149 0 C154.06617422 4.57775289 158.35566142 10.05376373 159.2624054 17.01434326 C159.34442168 19.20193514 159.33807362 21.36995867 159.29296875 23.55859375 C159.28872391 24.34774673 159.28447906 25.13689972 159.28010559 25.94996643 C159.26344452 28.44617261 159.22581779 30.94154192 159.1875 33.4375 C159.17243683 35.13996222 159.15875129 36.84243721 159.14648438 38.54492188 C159.1135825 42.6969322 159.06188951 46.8483247 159 51 C160.15822266 50.97381592 161.31644531 50.94763184 162.50976562 50.9206543 C166.88570144 50.82884444 171.26155597 50.7722852 175.63818359 50.7253418 C177.51756188 50.70049078 179.39684662 50.66659724 181.27587891 50.62280273 C200.64018061 50.18340988 218.2038442 53.36787401 232.8125 67.3125 C239.91486127 74.94239173 244.44690178 81.88192925 247.17578125 92.01953125 C248.04781281 95.38653265 248.04781281 95.38653265 250 100 C250 111.55 250 123.1 250 135 C122.95 135 -4.1 135 -135 135 C-135 84.50170713 -135 84.50170713 -117.67578125 66.44140625 C-105.77317702 55.58136589 -91.8378771 50.61646896 -75.93359375 50.8046875 C-75.01409439 50.8075174 -74.09459503 50.81034729 -73.14723206 50.81326294 C-70.24384907 50.82435416 -67.34078791 50.84943737 -64.4375 50.875 C-62.45508262 50.88504412 -60.47266034 50.89416745 -58.49023438 50.90234375 C-53.66003445 50.92425714 -48.83007157 50.95870919 -44 51 C-44.0314209 49.52575562 -44.0314209 49.52575562 -44.06347656 48.02172852 C-44.13647313 44.33730938 -44.18201358 40.65295269 -44.21972656 36.96801758 C-44.23970745 35.38034274 -44.26690203 33.79274021 -44.30175781 32.20532227 C-44.65789224 15.55603768 -44.65789224 15.55603768 -40 8 C-39.46375 6.948125 -38.9275 5.89625 -38.375 4.8125 C-28.69262678 -6.65346829 -12.12045322 -8.62879948 0 0 Z " fill="#9BACC9" transform="translate(456,44)"/>
<path d="M0 0 C0 70.95 0 141.9 0 215 C-50.16 215 -100.32 215 -152 215 C-148.63076923 203.76923077 -148.63076923 203.76923077 -146.625 199.125 C-146.191875 198.11308594 -145.75875 197.10117187 -145.3125 196.05859375 C-144.6628125 194.54458984 -144.6628125 194.54458984 -144 193 C-143.20742054 191.06287322 -142.4157558 189.12537193 -141.625 187.1875 C-139.50619968 182.10106322 -137.22133983 177.10715211 -134.86328125 172.12744141 C-133.14679746 168.49269569 -131.47995808 164.84223777 -129.8671875 161.16015625 C-125.40668656 150.99734935 -120.57570736 141.27709657 -114.97851562 131.69433594 C-113.62140149 129.34444269 -112.34166248 126.95553992 -111.0625 124.5625 C-96.44636486 97.75961458 -79.4381146 71.73731644 -59 49 C-58.28432861 48.19973389 -58.28432861 48.19973389 -57.55419922 47.38330078 C-48.32504277 37.0912977 -38.82564477 27.62644368 -28 19 C-27.23300781 18.35417969 -26.46601562 17.70835937 -25.67578125 17.04296875 C-5.2311609 0 -5.2311609 0 0 0 Z " fill="#E4E5EE" transform="translate(750,465)"/>
<path d="M0 0 C28.01659854 19.39311054 41.91722087 56.74815634 49.00610352 88.61791992 C49.00610352 89.60791992 49.00610352 90.59791992 49.00610352 91.61791992 C3.79610352 91.61791992 -41.41389648 91.61791992 -87.99389648 91.61791992 C-86.80935614 66.74257268 -86.80935614 66.74257268 -84.93139648 56.55541992 C-84.71733154 55.37858643 -84.5032666 54.20175293 -84.28271484 52.98925781 C-82.1775584 42.23680018 -78.68285139 32.49004461 -73.99389648 22.61791992 C-73.51178711 21.54670898 -73.02967773 20.47549805 -72.53295898 19.37182617 C-67.07245023 8.24564503 -57.17704713 -3.02078156 -45.30639648 -7.13208008 C-43.87503523 -7.56936984 -42.43752001 -7.98715165 -40.99389648 -8.38208008 C-40.39963867 -8.56641602 -39.80538086 -8.75075195 -39.19311523 -8.94067383 C-24.82053616 -11.82540107 -11.96823315 -7.91465938 0 0 Z " fill="#E4E6EE" transform="translate(537.993896484375,588.382080078125)"/>
<path d="M0 0 C6.2655685 5.60491332 10.50244142 11.5530642 11.28215027 20.08879089 C11.39622789 23.81106379 11.41572009 27.52209782 11.3984375 31.24609375 C11.4004629 32.62557631 11.40337821 34.00505781 11.40713501 35.38453674 C11.41153798 38.26500723 11.4051944 41.14519711 11.39111328 44.02563477 C11.37403838 47.69490934 11.38386414 51.36352458 11.40183067 55.03277493 C11.41273765 57.87861482 11.4091905 60.72430173 11.4014473 63.57014656 C11.39850735 65.5734971 11.40752799 67.57685388 11.4168396 69.58018494 C11.34447044 79.02998663 10.53557249 87.26957208 3.875 94.4296875 C-2.97074378 100.16299791 -10.88866339 102.32482006 -19.66015625 102.22265625 C-23.43195831 101.86373686 -26.59380911 100.59805872 -30 99 C-31.299375 98.443125 -31.299375 98.443125 -32.625 97.875 C-36.34519051 94.93800749 -38.60615387 91.05058421 -41 87 C-41.34893311 86.41605469 -41.69786621 85.83210938 -42.05737305 85.23046875 C-43.24742718 82.41453128 -43.32305581 80.1143185 -43.4140625 77.05859375 C-43.45313721 75.85154785 -43.49221191 74.64450195 -43.5324707 73.40087891 C-43.56300537 72.09296387 -43.59354004 70.78504883 -43.625 69.4375 C-43.66039883 68.06949866 -43.69579925 66.70149736 -43.73120117 65.33349609 C-43.82090647 61.66121024 -43.89171563 57.98877045 -43.95709229 54.315979 C-44.00067412 51.96361409 -44.05136971 49.61147764 -44.10302734 47.25927734 C-44.18666741 43.31320468 -44.24466351 39.36742902 -44.28509521 35.42068481 C-44.30320396 33.90372445 -44.32786508 32.38682658 -44.35943604 30.87008667 C-44.52476458 22.47216406 -44.40748821 15.38298992 -40 8 C-39.46375 6.948125 -38.9275 5.89625 -38.375 4.8125 C-28.69262678 -6.65346829 -12.12045322 -8.62879948 0 0 Z " fill="#B3BED6" transform="translate(456,44)"/>
<path d="M0 0 C6.99069295 4.02391106 12.48212013 10.1155573 14.625 18 C15.07060543 22.78578357 15.04791773 27.56501397 15.0234375 32.3671875 C15.02546215 33.77051952 15.02837684 35.17385051 15.03213501 36.57717896 C15.03654291 39.51070221 15.03017924 42.4439503 15.01611328 45.37744141 C14.99905367 49.11512201 15.00885131 52.85215465 15.02683067 56.58981133 C15.03773749 59.48626472 15.0341903 62.38256779 15.0264473 65.27902603 C15.02446263 66.65596724 15.02684282 68.03292263 15.03388596 69.40984726 C15.08233502 81.5453278 13.74917796 90.73000828 5 99.6875 C-0.58021502 104.04484674 -8.10727677 105.64771707 -15.08984375 105.33984375 C-22.83471968 104.18804169 -28.248875 100.79576331 -33.68359375 95.29296875 C-37.54848884 90.05349204 -38.74986967 85.34855524 -38.79492188 78.90649414 C-38.80339142 78.23557236 -38.81186096 77.56465057 -38.82058716 76.87339783 C-38.84379912 74.67711927 -38.84498327 72.48154767 -38.84375 70.28515625 C-38.85086064 68.74490586 -38.85856095 67.2046581 -38.86682129 65.66441345 C-38.88022938 62.44425075 -38.88185129 59.2243331 -38.87597656 56.00415039 C-38.8700806 51.89395234 -38.90068335 47.78493556 -38.94109344 43.67496586 C-38.96704242 40.49630997 -38.96984148 37.31793596 -38.96620178 34.13918877 C-38.967886 32.62462836 -38.97746084 31.11005395 -38.99534607 29.59559822 C-39.10050857 19.59173771 -38.16842651 13.31036466 -31.3828125 5.79296875 C-22.1836678 -2.05111522 -11.55520697 -5.22189506 0 0 Z " fill="#B3BFD6" transform="translate(600.375,41)"/>
<path d="M0 0 C23.1 0 46.2 0 70 0 C70 23.43 70 46.86 70 71 C46.9 71 23.8 71 0 71 C0 47.57 0 24.14 0 0 Z " fill="#FDFEFE" transform="translate(377,427)"/>
<path d="M0 0 C23.1 0 46.2 0 70 0 C70 22.77 70 45.54 70 69 C46.9 69 23.8 69 0 69 C0 46.23 0 23.46 0 0 Z " fill="#FDFEFE" transform="translate(377,355)"/>
<path d="M0 0 C23.1 0 46.2 0 70 0 C70 22.77 70 45.54 70 69 C46.9 69 23.8 69 0 69 C0 46.23 0 23.46 0 0 Z " fill="#FDFEFE" transform="translate(377,282)"/>
<path d="M0 0 C23.1 0 46.2 0 70 0 C70 22.77 70 45.54 70 69 C46.9 69 23.8 69 0 69 C0 46.23 0 23.46 0 0 Z " fill="#FDFEFE" transform="translate(377,209)"/>
<path d="M0 0 C22.44 0 44.88 0 68 0 C68 23.43 68 46.86 68 71 C45.56 71 23.12 71 0 71 C0 47.57 0 24.14 0 0 Z " fill="#FDFEFE" transform="translate(522,427)"/>
<path d="M0 0 C22.44 0 44.88 0 68 0 C68 23.43 68 46.86 68 71 C45.56 71 23.12 71 0 71 C0 47.57 0 24.14 0 0 Z " fill="#FDFDFE" transform="translate(451,208)"/>
<path d="M0 0 C22.77 0 45.54 0 69 0 C69 22.77 69 45.54 69 69 C46.23 69 23.46 69 0 69 C0 46.23 0 23.46 0 0 Z " fill="#FDFEFE" transform="translate(593,282)"/>
<path d="M0 0 C22.11 0 44.22 0 67 0 C67 23.43 67 46.86 67 71 C44.89 71 22.78 71 0 71 C0 47.57 0 24.14 0 0 Z " fill="#FDFEFE" transform="translate(451,427)"/>
<path d="M0 0 C22.44 0 44.88 0 68 0 C68 22.77 68 45.54 68 69 C45.56 69 23.12 69 0 69 C0 46.23 0 23.46 0 0 Z " fill="#FDFEFE" transform="translate(594,355)"/>
<path d="M0 0 C22.44 0 44.88 0 68 0 C68 22.77 68 45.54 68 69 C45.56 69 23.12 69 0 69 C0 46.23 0 23.46 0 0 Z " fill="#FDFEFE" transform="translate(522,355)"/>
<path d="M0 0 C22.44 0 44.88 0 68 0 C68 22.77 68 45.54 68 69 C45.56 69 23.12 69 0 69 C0 46.23 0 23.46 0 0 Z " fill="#FDFEFE" transform="translate(594,209)"/>
<path d="M0 0 C22.44 0 44.88 0 68 0 C68 22.77 68 45.54 68 69 C45.56 69 23.12 69 0 69 C0 46.23 0 23.46 0 0 Z " fill="#FDFEFE" transform="translate(522,209)"/>
<path d="M0 0 C22.11 0 44.22 0 67 0 C67 22.77 67 45.54 67 69 C44.89 69 22.78 69 0 69 C0 46.23 0 23.46 0 0 Z " fill="#FDFEFE" transform="translate(451,355)"/>
<path d="M0 0 C22.11 0 44.22 0 67 0 C67 22.77 67 45.54 67 69 C44.89 69 22.78 69 0 69 C0 46.23 0 23.46 0 0 Z " fill="#FDFEFE" transform="translate(451,282)"/>
<path d="M0 0 C22.11 0 44.22 0 67 0 C67 22.44 67 44.88 67 68 C44.89 68 22.78 68 0 68 C0 45.56 0 23.12 0 0 Z " fill="#EFBCA5" transform="translate(523,283)"/>
<path d="M0 0 C22.44 0 44.88 0 68 0 C68 43.75595238 68 43.75595238 54.3125 58.3125 C38.37189694 73.34494276 22.33341395 71 0 71 C0 47.57 0 24.14 0 0 Z " fill="#FDFEFE" transform="translate(594,427)"/>
<path d="M0 0 C1.12150452 -0.00852997 2.24300903 -0.01705994 3.39849854 -0.02584839 C5.24532227 -0.02448883 5.24532227 -0.02448883 7.12945557 -0.02310181 C8.42562805 -0.02981903 9.72180054 -0.03653625 11.05725098 -0.04345703 C14.61529993 -0.06113927 18.17325272 -0.06581345 21.73134136 -0.0670886 C23.95544879 -0.06850998 26.17953176 -0.07277939 28.40363312 -0.07808304 C36.16642306 -0.09659354 43.92914429 -0.10475274 51.69195557 -0.10317993 C58.92141363 -0.10197956 66.15057264 -0.12305851 73.37995505 -0.15466726 C79.59070351 -0.18085184 85.80135447 -0.19154626 92.01215768 -0.19026911 C95.7197166 -0.18975994 99.42701003 -0.19541753 103.13451385 -0.21662521 C107.27365914 -0.2396544 111.41213877 -0.23047343 115.55133057 -0.21841431 C116.77444946 -0.22965332 117.99756836 -0.24089233 119.25775146 -0.25247192 C125.91048177 -0.20320427 130.24581362 0.17375878 135.59918213 4.26742554 C138.58637218 8.60366916 139.15713201 12.05989333 138.59918213 17.26742554 C136.85501839 21.94912821 134.72882374 24.47991745 130.59918213 27.26742554 C127.55817774 28.28109367 125.49486071 28.40034267 122.31225586 28.41459656 C120.66786278 28.42532951 120.66786278 28.42532951 118.99024963 28.4362793 C117.18550423 28.44031265 117.18550423 28.44031265 115.34429932 28.44442749 C113.44393166 28.45428429 113.44393166 28.45428429 111.50517273 28.46434021 C107.30214704 28.4853628 103.09912106 28.49574139 98.89605713 28.50570679 C97.44779695 28.50975512 95.99953695 28.51387206 94.55127716 28.51805687 C87.74626254 28.53710515 80.94125875 28.55133653 74.1362226 28.55966884 C66.28766505 28.56943815 58.43938976 28.59575092 50.59093165 28.63616973 C44.52032127 28.66635711 38.44979168 28.68114021 32.37910771 28.68444985 C28.75536524 28.68679751 25.13192442 28.69572028 21.50826263 28.72091103 C17.46254289 28.74858162 13.4174515 28.74435266 9.37164307 28.73739624 C8.17657639 28.7502063 6.9815097 28.76301636 5.75022888 28.7762146 C-0.86677053 28.7347288 -5.03796962 28.2561664 -10.40081787 24.26742554 C-14.03260055 20.4013343 -13.95667454 16.01127558 -13.82659912 10.93148804 C-13.15428147 6.72487668 -11.52826543 5.10394774 -8.40081787 2.26742554 C-5.03957649 0.02659795 -3.93036727 0.01349309 0 0 Z " fill="#B6C1D5" transform="translate(187.40081787109375,492.7325744628906)"/>
<path d="M0 0 C6.61520864 5.38863871 10.31814513 11.95443539 13 20 C13.80995994 32.99051136 12.30386067 42.66890575 4 53 C-3.25846951 60.66739737 -11.59792035 64.03785121 -22.0625 64.375 C-32.49323434 64.2571386 -40.63328331 60.28992584 -48.09375 53.11328125 C-56.76606612 43.49909473 -57.82781182 33.5196755 -57.19091797 21.05664062 C-56.79097356 16.74828803 -55.40465155 13.54294815 -53 10 C-52.50242187 9.23429687 -52.00484375 8.46859375 -51.4921875 7.6796875 C-45.97833066 -0.09100377 -38.5743652 -5.53902996 -29.1875 -7.625 C-18.2111324 -8.91633737 -8.86567757 -6.77854931 0 0 Z " fill="#B6C0D4" transform="translate(134,277)"/>
<path d="M0 0 C1.94732529 -0.01051392 1.94732529 -0.01051392 3.93399048 -0.02124023 C7.48366454 -0.03942797 11.03287197 -0.03242529 14.58255386 -0.01972389 C18.30333939 -0.00957243 22.02408589 -0.01899551 25.74487305 -0.02526855 C31.99242297 -0.03253875 38.23978354 -0.02297389 44.48730469 -0.00390625 C51.70267379 0.01786146 58.91759073 0.01080963 66.13294888 -0.01121187 C72.33612396 -0.02938391 78.53916319 -0.03191544 84.7423563 -0.0214572 C88.44365916 -0.01523211 92.14474973 -0.01435928 95.84603882 -0.02760315 C99.97315092 -0.04134007 104.09948776 -0.02228273 108.2265625 0 C109.44856354 -0.00809692 110.67056458 -0.01619385 111.92959595 -0.02453613 C118.25111614 0.03872708 122.37876931 0.12781706 127.11328125 4.51757812 C130.03131418 8.89462753 130.75376434 12.30221584 130.11328125 17.51757812 C128.26071788 22.34818691 125.77263307 25.24597352 121.11328125 27.51757812 C118.41928101 27.89510155 118.41928101 27.89510155 115.45849609 27.89852905 C114.33135193 27.90698853 113.20420776 27.915448 112.04290771 27.92416382 C110.20215668 27.91505478 110.20215668 27.91505478 108.32421875 27.90576172 C107.02454163 27.91101868 105.7248645 27.91627563 104.38580322 27.92169189 C100.82794015 27.93534888 97.27033855 27.93007368 93.71247101 27.92055464 C89.98587855 27.9129496 86.2593082 27.92000599 82.53271484 27.92471313 C76.2750243 27.93016824 70.01744003 27.92298556 63.75976562 27.90869141 C56.52912821 27.8923653 49.29874459 27.89765398 42.06811333 27.91417062 C35.8556495 27.92779253 29.64326198 27.92970173 23.43078804 27.92185462 C19.72226935 27.91718195 16.01386988 27.916542 12.30535889 27.92646408 C8.17086806 27.93675355 4.03681351 27.9224849 -0.09765625 27.90576172 C-1.32482361 27.91183441 -2.55199097 27.9179071 -3.81634521 27.92416382 C-4.94348938 27.91570435 -6.07063354 27.90724487 -7.23193359 27.89852905 C-8.20899261 27.89739798 -9.18605164 27.8962669 -10.19271851 27.89510155 C-14.69765251 27.26380313 -17.24113134 25.25040708 -20.19921875 21.89257812 C-22.35761276 17.57579011 -22.59734069 14.2550577 -21.88671875 9.51757812 C-20.41446095 5.83693363 -18.29191904 3.51799375 -14.9468689 1.36561584 C-10.26529311 -0.56150236 -4.97953165 -0.03299415 0 0 Z " fill="#B7C1D5" transform="translate(195.88671875,290.482421875)"/>
<path d="M0 0 C1.13984848 -0.0071553 2.27969696 -0.01431061 3.4540863 -0.02168274 C4.71074097 -0.02437164 5.96739563 -0.02706055 7.26213074 -0.02983093 C8.58087692 -0.03640213 9.89962311 -0.04297333 11.2583313 -0.04974365 C14.88239386 -0.06715875 18.50644323 -0.07770678 22.13053727 -0.08594918 C24.39431567 -0.09109825 26.65808996 -0.09717402 28.92186546 -0.10346031 C36.00345835 -0.1225138 43.08504081 -0.13674461 50.16665441 -0.14507228 C58.34350972 -0.15484642 66.52009446 -0.18116964 74.69685441 -0.22157317 C81.01539428 -0.25172425 87.33385654 -0.26654018 93.65246695 -0.26985329 C97.42706181 -0.27220495 101.20136765 -0.28117979 104.97588539 -0.30631447 C108.52756553 -0.32958294 112.07876612 -0.33383376 115.6305027 -0.32355309 C117.55351996 -0.3228211 119.4765128 -0.34192107 121.39942932 -0.36161804 C123.12189125 -0.35120232 123.12189125 -0.35120232 124.87915039 -0.34057617 C125.87485456 -0.34296453 126.87055872 -0.34535288 127.89643574 -0.34781361 C132.47320581 0.48091717 134.91242195 3.11856988 137.50505066 6.83467102 C139.00219878 11.24294049 138.94663475 14.6867437 137.63005066 19.14717102 C135.46634502 22.93566676 132.70029944 25.54227354 128.63005066 27.14717102 C126.09591961 27.40443993 126.09591961 27.40443993 123.18490601 27.41459656 C121.5258297 27.42739151 121.5258297 27.42739151 119.83323669 27.44044495 C118.62431763 27.43953857 117.41539856 27.4386322 116.16984558 27.43769836 C114.89303421 27.44441559 113.61622284 27.45113281 112.30072021 27.45805359 C108.80057951 27.47571234 105.30053662 27.48040896 101.80035567 27.48168516 C99.61192228 27.48310761 97.42351367 27.48737901 95.23508644 27.4926796 C87.59548491 27.51118078 79.95595315 27.51935027 72.31632996 27.51777649 C65.20329671 27.51657566 58.09056718 27.53766598 50.97761077 27.56926382 C44.86450566 27.59544894 38.7514996 27.60614283 32.63833886 27.60486567 C28.9900379 27.60435661 25.34200677 27.6100083 21.69376183 27.63122177 C17.62177791 27.65425268 13.55047054 27.6450697 9.47843933 27.63301086 C8.27559296 27.64424988 7.07274658 27.65548889 5.83345032 27.66706848 C-0.795634 27.61717102 -5.00133083 27.1524799 -10.36994934 23.14717102 C-13.7519597 19.43786934 -13.98926897 15.50819042 -13.86604309 10.65888977 C-13.03784772 6.46574313 -10.56757959 3.85604431 -7.36994934 1.14717102 C-4.78021927 -0.14769402 -2.90111543 0.01246551 0 0 Z " fill="#B5C0D5" transform="translate(187.3699493408203,392.8528289794922)"/>
<path d="M0 0 C1.68026567 1.09471854 3.32933971 2.23936734 4.9375 3.4375 C6.04351562 4.21480469 6.04351562 4.21480469 7.171875 5.0078125 C13.90378255 10.24655259 18.73694308 17.93032782 19.9375 26.4375 C20.90172446 37.47098271 19.47879879 46.1569804 12.91796875 55.23046875 C7.17275048 62.04222491 0.90311476 67.07169745 -8.0625 68.4375 C-19.88692017 69.30718861 -29.88431588 67.24159898 -39.0625 59.4375 C-47.45962466 50.40451289 -50.46345078 40.95748786 -50.33984375 28.7890625 C-49.58989543 19.72630675 -44.86315892 11.82203415 -38.21484375 5.75 C-36.22958085 4.17126211 -34.20974706 2.78651395 -32.0625 1.4375 C-31.43085937 1.02242188 -30.79921875 0.60734375 -30.1484375 0.1796875 C-21.40026552 -4.65038429 -8.81324686 -4.58485506 0 0 Z " fill="#B7C1D5" transform="translate(127.0625,473.5625)"/>
<path d="M0 0 C6.37246963 5.19827177 11.26803896 11.95495432 12.38696289 20.27661133 C12.49779802 22.99889069 12.48396941 25.68683895 12.41015625 28.41015625 C12.40886719 29.32925781 12.40757812 30.24835938 12.40625 31.1953125 C12.34684764 35.75609391 12.20340615 39.53180844 10.03515625 43.66015625 C9.37515625 43.66015625 8.71515625 43.66015625 8.03515625 43.66015625 C7.95265625 44.19640625 7.87015625 44.73265625 7.78515625 45.28515625 C6.75934354 48.53356316 5.06951731 50.94767484 3.03515625 53.66015625 C2.37515625 53.66015625 1.71515625 53.66015625 1.03515625 53.66015625 C1.03515625 54.32015625 1.03515625 54.98015625 1.03515625 55.66015625 C-6.19424587 61.77889603 -15.6974051 64.36548767 -25.03125 64.07421875 C-33.56024092 62.87039313 -42.3664759 59.40464665 -47.96484375 52.66015625 C-50.23687189 49.44909511 -52.15860268 46.15222232 -53.96484375 42.66015625 C-54.47917969 41.70496094 -54.47917969 41.70496094 -55.00390625 40.73046875 C-58.22007908 33.72702699 -58.09606523 25.14246932 -56.23828125 17.78125 C-52.53841042 7.92996791 -46.36097441 0.34477407 -36.81640625 -4.41015625 C-23.8558062 -9.52487581 -11.26636993 -8.08714738 0 0 Z " fill="#B7C1D5" transform="translate(133.96484375,378.33984375)"/>
<path d="M0 0 C1.9375 0.25 1.9375 0.25 4 1 C4.66 1.99 5.32 2.98 6 4 C-1.59 11.59 -9.18 19.18 -17 27 C-20.37293565 25.31353217 -21.93346994 24.30850283 -24.453125 21.7421875 C-25.071875 21.11699219 -25.690625 20.49179687 -26.328125 19.84765625 C-26.96234375 19.19667969 -27.5965625 18.54570312 -28.25 17.875 C-28.8996875 17.21628906 -29.549375 16.55757813 -30.21875 15.87890625 C-31.81711727 14.25703357 -33.41061897 12.6306719 -35 11 C-34.01 9.68 -33.02 8.36 -32 7 C-27.62170683 8.84709243 -25.12120954 11.93708858 -22 15.41796875 C-20.17112698 17.19307565 -20.17112698 17.19307565 -18.05859375 17.03515625 C-15.16327705 15.57925696 -13.30316457 13.58388173 -11.0625 11.25 C-9.81146484 9.95835937 -9.81146484 9.95835937 -8.53515625 8.640625 C-7.69855469 7.76921875 -6.86195312 6.8978125 -6 6 C-4.33687565 4.32979853 -2.67102015 2.66230178 -1 1 C-0.67 0.67 -0.34 0.34 0 0 Z " fill="#F3F0EA" transform="translate(126,293)"/>
<path d="M0 0 C0.33 0 0.66 0 1 0 C0.6173991 5.64336328 0.22146091 8.89915226 -4 13 C-7.22898482 15.01248454 -9.71798734 15.24768443 -13.49224854 15.24050903 C-14.60841553 15.24325836 -15.72458252 15.24600769 -16.87457275 15.24884033 C-18.09448914 15.24164978 -19.31440552 15.23445923 -20.57128906 15.22705078 C-21.85934448 15.22734283 -23.1473999 15.22763489 -24.4744873 15.22793579 C-28.00311939 15.22850954 -31.53161547 15.21675173 -35.06021595 15.20278788 C-38.74910098 15.19028416 -42.43798914 15.1891103 -46.12689209 15.18673706 C-53.1108177 15.18052124 -60.09468068 15.16410904 -67.07857871 15.14403808 C-75.03014377 15.12168227 -82.98171183 15.11068645 -90.9333005 15.10064721 C-107.28890366 15.07974289 -123.64444384 15.04456493 -140 15 C-140 14.67 -140 14.34 -140 14 C-139.40677602 13.99945523 -138.81355204 13.99891047 -138.20235157 13.99834919 C-123.7632489 13.98337736 -109.32442029 13.94091447 -94.88549519 13.86790943 C-87.90287602 13.83326634 -80.92045413 13.80790484 -73.93774414 13.80444336 C-67.20076215 13.80107757 -60.46435147 13.77178085 -53.72749901 13.72656822 C-51.15548783 13.71356447 -48.58341736 13.70929564 -46.01137733 13.71384621 C-42.41239269 13.71873135 -38.81486963 13.69274891 -35.21606445 13.65942383 C-34.14935516 13.66804947 -33.08264587 13.67667511 -31.98361206 13.68556213 C-25.98409434 13.63996075 -25.98409434 13.63996075 -20.97477722 10.54081726 C-20.32310074 9.70234756 -19.67142426 8.86387787 -19 8 C-16.1875 6.6875 -16.1875 6.6875 -14 6 C-14 6.99 -14 7.98 -14 9 C-13.34 8.67 -12.68 8.34 -12 8 C-12.495 7.01 -12.495 7.01 -13 6 C-10.525 5.01 -10.525 5.01 -8 4 C-8 4.66 -8 5.32 -8 6 C-5.69 6 -3.38 6 -1 6 C-0.67 4.02 -0.34 2.04 0 0 Z " fill="#A5B3CC" transform="translate(325,303)"/>
<path d="M0 0 C0.33 0 0.66 0 1 0 C1.33 9.24 1.66 18.48 2 28 C2 23.71 2 19.42 2 15 C2.66 14.34 3.32 13.68 4 13 C4 25.87 4 38.74 4 52 C3.01 52.495 3.01 52.495 2 53 C1.68758545 55.71446979 1.48663408 58.33909361 1.375 61.0625 C1.33632813 61.82111328 1.29765625 62.57972656 1.2578125 63.36132812 C1.16326438 65.24047195 1.08053244 67.12020336 1 69 C0.67 69 0.34 69 0 69 C0 46.23 0 23.46 0 0 Z " fill="#E8EEF7" transform="translate(518,282)"/>
<path d="M0 0 C0.33 0 0.66 0 1 0 C0.28571429 8.57142857 0.28571429 8.57142857 -3 12 C-3.66 11.67 -4.32 11.34 -5 11 C-4.34 9.35 -3.68 7.7 -3 6 C-2.34 6 -1.68 6 -1 6 C-0.67 4.02 -0.34 2.04 0 0 Z " fill="#A8B6CF" transform="translate(325,303)"/>
<path d="M0 0 C0.66 0.33 1.32 0.66 2 1 C-0.80804268 3.96404505 -3.18315774 6.44499019 -7 8 C-5.50902342 4.2047869 -3.24299151 2.38957269 0 0 Z " fill="#AEBAD1" transform="translate(94,376)"/>
<path d="M0 0 C0.66 0.33 1.32 0.66 2 1 C-1.465 3.97 -1.465 3.97 -5 7 C-5.33 5.02 -5.66 3.04 -6 1 C-5.34 1 -4.68 1 -4 1 C-3.67 1.66 -3.34 2.32 -3 3 C-2.01 2.01 -1.02 1.02 0 0 Z " fill="#AFBAD1" transform="translate(119,298)"/>
<path d="M0 0 C0.66 0.33 1.32 0.66 2 1 C-0.5162178 3.60608273 -3.05134359 5.89381685 -6 8 C-6.66 7.67 -7.32 7.34 -8 7 C-5.36 4.69 -2.72 2.38 0 0 Z " fill="#94A4C2" transform="translate(343,107)"/>
<path d="M0 0 C2.64 0 5.28 0 8 0 C6.875 1.5625 6.875 1.5625 5 3 C1.8125 2.6875 1.8125 2.6875 -1 2 C-0.67 1.34 -0.34 0.68 0 0 Z " fill="#94A6C3" transform="translate(530,95)"/>
</svg>
